# xmcd CD database file
#
# Track frame offsets:
#	150
#	13308
#	28731
#	49685
#	65747
#	81059
#	96725
#	114605
#	137262
#	173727
#	192473
#	212018
#
# Disc length: 3086 seconds
#
# Revision: 0
# Processed by: cddbd v1.5.1PL2 Copyright (c) Steve Scherf et al.
# Submitted via: CDex 1.51
#
DISCID=ac0c0c0c
DTITLE=Susan Ashton - Closer
DYEAR=1900
DGENRE=Country
TTITLE0=Come On Out Of The Rain
TTITLE1=Closer
TTITLE2=Our Little World
TTITLE3=You're Lucky I Love You
TTITLE4=I Ain't Gonna Fall For Love Again
TTITLE5=Breathless
TTITLE6=Shot For The Moon
TTITLE7=Getaway Car
TTITLE8=Supernatural
TTITLE9=Think Of Me
TTITLE10=Faith Of The Heart
TTITLE11=Can't Cry Hard Enough
EXTD=
EXTT0=
EXTT1=
EXTT2=
EXTT3=
EXTT4=
EXTT5=
EXTT6=
EXTT7=
EXTT8=
EXTT9=
EXTT10=
EXTT11=
PLAYORDER=
